<svg id="Layer_1" data-name="Layer 1" xmlns="http://www.w3.org/2000/svg" viewBox="0 0 30 30"><defs><style>.cls-1{fill:none;stroke:#f6f6f6;stroke-linecap:round;stroke-miterlimit:10;}</style></defs><title>преимущества</title><path class="cls-1" d="M10.64,10.51h-7a1.27,1.27,0,0,0-1.27,1.27V23.05a1.27,1.27,0,0,0,1.27,1.27H26.47a1.27,1.27,0,0,0,1.27-1.27V16.48a1.27,1.27,0,0,0-1.27-1.27H20.83a1.27,1.27,0,0,1-1.27-1.27V7.55a1.27,1.27,0,0,0-1.27-1.27H12.06a1.27,1.27,0,0,0-1.27,1.27V19.93"/><line class="cls-1" x1="19.57" y1="19.5" x2="19.59" y2="14.73"/></svg>