<svg data-name="Layer 1" xmlns="http://www.w3.org/2000/svg" viewBox="0 0 30 30"><defs><style>.cls-1,.cls-2{fill:none;stroke:#f6f6f6;stroke-miterlimit:10;}.cls-1{stroke-linecap:round;}</style></defs><title>преимущества</title><rect class="cls-1" x="9.91" y="2.08" width="3.28" height="8.32" rx="1.64" ry="1.64" transform="translate(7.79 -6.34) rotate(45)"/><rect class="cls-1" x="17.37" y="9.54" width="3.28" height="8.32" rx="1.64" ry="1.64" transform="translate(15.26 -9.43) rotate(45)"/><line class="cls-2" x1="16.54" y1="14.41" x2="10.98" y2="8.85"/><line class="cls-2" x1="13.96" y1="5.76" x2="19.52" y2="11.32"/><path class="cls-1" d="M14.28,13,4.6,23.44a1.06,1.06,0,0,1-1.5,0L1.78,22.1a1.05,1.05,0,0,1,0-1.5l10.68-9.68"/><rect class="cls-1" x="14.78" y="25.42" width="13.62" height="2.38" rx="0.61" ry="0.61"/><rect class="cls-1" x="16.37" y="23.02" width="10.49" height="2.38" rx="0.82" ry="0.82"/></svg>